# xmcd CD database file
#
# Track frame offsets:
#	150
#	18910
#	32239
#	45288
#	58167
#	76325
#	96371
#	112174
#	128387
#	149912
#	172671
#	188465
#	202316
#	219370
#	238302
#	258100
#	273908
#	290589
#	307683
#
# Disc length: 4332 seconds
#
# Revision: 0
# Processed by: cddbd v1.5.2PL0 Copyright (c) Steve Scherf et al.
# Submitted via: CDex 1.51
#
DISCID=0c10ea13
DTITLE=Various Artist - Country Australia
DYEAR=2008
DGENRE=Country
TTITLE0=Pete Murray - Unfinished
TTITLE1=Jimmy Barnes - Better Off Alone
TTITLE2=Amber Nicholson - Afraid to Love You
TTITLE3=Andrew Morris - Everybody Knows
TTITLE4=Karl Broadie - Chamomile Days 
TTITLE5=Kevin Bennett and The Flood - Golden Hill
TTITLE6=Paul Greene - Some Simplicity
TTITLE7=Nicki Gillis - Honey I Don't Have Time
TTITLE8=The Huckleberry Swededs - Dust Storms Falling
TTITLE9=Brewster Brothers Trio - No Place Like Home
TTITLE10=John Schumann - Taking His Chance
TTITLE11=King Curly - The Bumblebee Has No Home
TTITLE12=Tamara Stewart - Drive
TTITLE13=Chris Pickering - Invincible
TTITLE14=The Gin Club - 10 Paces Away
TTITLE15=Casey Watt - Close The Door
TTITLE16=Psycho Zydeco - Surf Cowboy
TTITLE17=Michael Fryers - Runaway Car
TTITLE18=The Stetson Family - Sister Mary
EXTD=YEAR: 2008
EXTT0=
EXTT1=
EXTT2=
EXTT3=
EXTT4=
EXTT5=
EXTT6=
EXTT7=
EXTT8=
EXTT9=
EXTT10=
EXTT11=
EXTT12=
EXTT13=
EXTT14=
EXTT15=
EXTT16=
EXTT17=
EXTT18=
PLAYORDER=
